<svg width="100" height="87" viewBox="0 0 100 87" fill="none" xmlns="http://www.w3.org/2000/svg">
<path d="M13.7058 22.5081C16.304 20.9361 20.2205 21.2376 22.5533 22.9052L19.8778 19.5388C17.7246 16.8805 18.4958 14.0045 21.5693 12.1383C24.6429 10.2792 33.3521 15.2774 33.3521 15.2774C31.1796 12.5929 31.5859 9.19051 34.6871 7.30749C37.7883 5.43165 42.0669 6.08006 44.2394 8.76941L73.0399 43.9894L69.3694 74.7948L38.7363 65.1237L12.0171 30.8297C9.82523 28.1284 10.5826 24.403 13.7058 22.5081Z" fill="#EF9645"/>
<path d="M7.71897 42.1013C7.71897 42.1013 4.59016 38.1534 9.15347 35.4473C13.7113 32.7413 16.8373 36.6867 16.8373 36.6867L31.3509 55.0097C31.8512 54.2871 32.3984 53.5741 33.0093 52.8707L12.8655 27.4439C12.8655 27.4439 9.73943 23.4984 14.3 20.7923C18.8578 18.0862 21.9838 22.0317 21.9838 22.0317L40.9308 45.9511C41.6356 45.4534 42.357 44.9534 43.1005 44.4629L21.1353 16.7296C21.1353 16.7296 18.0092 12.7841 22.5698 10.078C27.1275 7.37189 30.2536 11.3174 30.2536 11.3174L52.2189 39.0459C53.0259 38.6176 53.8247 38.2468 54.6263 37.8544L34.0955 11.9371C34.0955 11.9371 30.9695 7.99158 35.5272 5.28549C40.085 2.57939 43.2111 6.52488 43.2111 6.52488L64.9193 33.9304L68.2195 38.0984C54.5433 46.2191 53.2415 61.4962 61.0553 71.3612C62.6169 73.3351 64.8972 71.9833 64.8972 71.9833C55.519 60.142 58.3825 46.8364 72.0614 38.7181L68.0287 21.2469C68.0287 21.2469 66.5224 16.6434 71.8375 15.337C77.1554 14.033 78.6645 18.6365 78.6645 18.6365L83.3218 30.6094C85.1681 35.3564 87.1333 40.0867 89.7342 44.561C97.078 57.1942 92.6916 72.8949 78.8442 81.1184C63.7391 90.0837 43.0895 86.7507 32.7301 73.6773L7.71897 42.1013Z" fill="#FFDC5D"/>
<path d="M33.4381 77.2875C22.3823 77.2875 11.2103 67.6164 11.2103 58.0458C11.2103 56.7226 10.0909 55.6531 8.56243 55.6531C7.03395 55.6531 5.68237 56.7226 5.68237 58.0458C5.68237 72.4017 16.8543 82.0729 33.4381 82.0729C34.9666 82.0729 36.2021 80.9028 36.2021 79.5797C36.2021 78.2566 34.9666 77.2875 33.4381 77.2875Z" fill="#5DADEC"/>
<path d="M19.618 81.9725C11.3261 81.9725 5.79817 77.1871 5.79817 70.0092C5.79817 68.686 4.56267 67.6165 3.0342 67.6165C1.50573 67.6165 0.270233 68.686 0.270233 70.0092C0.270233 79.5798 8.56214 86.7578 19.618 86.7578C21.1465 86.7578 22.382 85.6883 22.382 84.3651C22.382 83.042 21.1465 81.9725 19.618 81.9725ZM66.6055 5.40736C65.0797 5.40736 63.8415 6.47927 63.8415 7.80002C63.8415 9.12076 65.0797 10.1927 66.6055 10.1927C77.6613 10.1927 88.7172 18.7799 88.7172 29.334C88.7172 30.6547 89.9555 31.7266 91.4812 31.7266C93.0069 31.7266 94.2451 30.6547 94.2451 29.334C94.2451 16.1408 83.1893 5.40736 66.6055 5.40736Z" fill="#5DADEC"/>
<path d="M80.4254 0.722473C78.8997 0.722473 77.6615 1.69389 77.6615 3.01464C77.6615 4.33539 78.8997 5.50779 80.4254 5.50779C88.7173 5.50779 94.1292 10.8315 94.1292 17.3706C94.1292 18.6913 95.4808 19.7633 97.0092 19.7633C98.5377 19.7633 99.6571 18.6913 99.6571 17.3706C99.6571 8.18996 91.4813 0.722473 80.4254 0.722473Z" fill="#5DADEC"/>
</svg>
